STARTFONT 2.1
FONT -FontForge-Indie Flower-Book-R-Normal--16-160-72-72-P-73-ISO10646-1
SIZE 16 72 72
FONTBOUNDINGBOX 19 24 -2 -8
COMMENT "Generated by fontforge, http://fontforge.sourceforge.net"
COMMENT "Copyright (c) 2010, Kimberly Geswein (kimberlygeswein.com)"
STARTPROPERTIES 39
FOUNDRY "FontForge"
FAMILY_NAME "Indie Flower"
WEIGHT_NAME "Book"
SLANT "R"
SETWIDTH_NAME "Normal"
ADD_STYLE_NAME ""
PIXEL_SIZE 16
POINT_SIZE 160
RESOLUTION_X 72
RESOLUTION_Y 72
SPACING "P"
AVERAGE_WIDTH 73
CHARSET_REGISTRY "ISO10646"
CHARSET_ENCODING "1"
FONTNAME_REGISTRY ""
CHARSET_COLLECTIONS "ISO8859-2 ISO8859-9 ISO8859-4 ISO10646-1"
FONT_NAME "IndieFlower"
FACE_NAME "Indie Flower"
COPYRIGHT "Copyright (c) 2010, Kimberly Geswein (kimberlygeswein.com)"
FONT_VERSION "1.001 2010"
FONT_ASCENT 13
FONT_DESCENT 3
UNDERLINE_POSITION -2
UNDERLINE_THICKNESS 1
X_HEIGHT 5
CAP_HEIGHT 7
RAW_ASCENT 799
RAW_DESCENT 200
NORM_SPACE 6
RELATIVE_WEIGHT 40
RELATIVE_SETWIDTH 50
SUPERSCRIPT_X 0
SUPERSCRIPT_Y 7
SUPERSCRIPT_SIZE 10
SUBSCRIPT_X 0
SUBSCRIPT_Y 2
SUBSCRIPT_SIZE 10
AVG_LOWERCASE_WIDTH 71
AVG_UPPERCASE_WIDTH 85
ENDPROPERTIES
CHARS 356
STARTCHAR space
ENCODING 32
SWIDTH 375 0
DWIDTH 6 0
BBX 1 1 0 0
BITMAP
00
ENDCHAR
STARTCHAR exclam
ENCODING 33
SWIDTH 149 0
DWIDTH 2 0
BBX 2 13 0 0
BITMAP
80
80
80
80
80
80
80
40
40
00
00
40
C0
ENDCHAR
STARTCHAR quotedbl
ENCODING 34
SWIDTH 234 0
DWIDTH 4 0
BBX 3 5 0 8
BITMAP
20
A0
A0
A0
60
ENDCHAR
STARTCHAR numbersign
ENCODING 35
SWIDTH 768 0
DWIDTH 12 0
BBX 12 8 0 0
BITMAP
0900
0500
07E0
7D00
85F0
3F00
4500
0180
ENDCHAR
STARTCHAR dollar
ENCODING 36
SWIDTH 581 0
DWIDTH 9 0
BBX 9 15 0 0
BITMAP
0800
0E00
0600
1F00
2A00
2A00
1A00
0E00
0D00
0C80
9480
5480
3D80
1E00
1400
ENDCHAR
STARTCHAR percent
ENCODING 37
SWIDTH 636 0
DWIDTH 10 0
BBX 10 10 0 0
BITMAP
0080
6100
9200
9400
B400
4980
0A40
1240
1480
2300
ENDCHAR
STARTCHAR ampersand
ENCODING 38
SWIDTH 457 0
DWIDTH 7 0
BBX 7 11 0 0
BITMAP
30
30
30
30
22
24
58
58
88
98
64
ENDCHAR
STARTCHAR quotesingle
ENCODING 39
SWIDTH 102 0
DWIDTH 2 0
BBX 1 4 0 8
BITMAP
80
80
80
80
ENDCHAR
STARTCHAR parenleft
ENCODING 40
SWIDTH 421 0
DWIDTH 7 0
BBX 6 10 0 -1
BITMAP
0C
10
20
40
40
80
80
80
60
38
ENDCHAR
STARTCHAR parenright
ENCODING 41
SWIDTH 290 0
DWIDTH 5 0
BBX 4 10 0 -1
BITMAP
60
30
10
10
10
10
10
20
40
80
ENDCHAR
STARTCHAR asterisk
ENCODING 42
SWIDTH 412 0
DWIDTH 7 0
BBX 6 6 0 4
BITMAP
04
68
3C
F8
58
94
ENDCHAR
STARTCHAR plus
ENCODING 43
SWIDTH 459 0
DWIDTH 7 0
BBX 7 7 0 0
BITMAP
20
10
10
7E
90
10
10
ENDCHAR
STARTCHAR comma
ENCODING 44
SWIDTH 130 0
DWIDTH 2 0
BBX 2 5 0 -3
BITMAP
C0
40
80
80
80
ENDCHAR
STARTCHAR hyphen
ENCODING 45
SWIDTH 375 0
DWIDTH 6 0
BBX 5 1 0 4
BITMAP
F8
ENDCHAR
STARTCHAR period
ENCODING 46
SWIDTH 204 0
DWIDTH 3 0
BBX 2 3 1 0
BITMAP
80
C0
80
ENDCHAR
STARTCHAR slash
ENCODING 47
SWIDTH 309 0
DWIDTH 5 0
BBX 5 12 0 0
BITMAP
08
08
10
10
10
20
20
20
40
40
C0
80
ENDCHAR
STARTCHAR zero
ENCODING 48
SWIDTH 430 0
DWIDTH 7 0
BBX 6 7 0 0
BITMAP
38
44
84
84
84
44
38
ENDCHAR
STARTCHAR one
ENCODING 49
SWIDTH 318 0
DWIDTH 5 0
BBX 5 9 0 0
BITMAP
08
08
18
30
50
90
10
10
10
ENDCHAR
STARTCHAR two
ENCODING 50
SWIDTH 497 0
DWIDTH 8 0
BBX 8 9 0 0
BITMAP
0C
14
12
02
02
02
04
F8
7F
ENDCHAR
STARTCHAR three
ENCODING 51
SWIDTH 430 0
DWIDTH 7 0
BBX 6 8 0 0
BITMAP
78
08
18
78
04
84
44
3C
ENDCHAR
STARTCHAR four
ENCODING 52
SWIDTH 412 0
DWIDTH 7 0
BBX 6 10 0 0
BITMAP
40
40
80
84
84
8C
7C
04
04
04
ENDCHAR
STARTCHAR five
ENCODING 53
SWIDTH 571 0
DWIDTH 9 0
BBX 9 11 0 0
BITMAP
0600
1980
1000
2000
3800
0600
0200
0100
8100
C200
3C00
ENDCHAR
STARTCHAR six
ENCODING 54
SWIDTH 440 0
DWIDTH 7 0
BBX 7 10 0 0
BITMAP
04
1A
20
40
40
FC
84
82
44
78
ENDCHAR
STARTCHAR seven
ENCODING 55
SWIDTH 412 0
DWIDTH 7 0
BBX 6 9 0 0
BITMAP
80
78
08
08
7C
14
10
10
10
ENDCHAR
STARTCHAR eight
ENCODING 56
SWIDTH 375 0
DWIDTH 6 0
BBX 6 9 0 0
BITMAP
70
88
90
60
30
48
48
44
38
ENDCHAR
STARTCHAR nine
ENCODING 57
SWIDTH 300 0
DWIDTH 5 0
BBX 5 10 0 0
BITMAP
70
88
98
90
70
10
10
10
10
10
ENDCHAR
STARTCHAR colon
ENCODING 58
SWIDTH 84 0
DWIDTH 1 0
BBX 1 4 0 1
BITMAP
80
00
00
80
ENDCHAR
STARTCHAR semicolon
ENCODING 59
SWIDTH 128 0
DWIDTH 2 0
BBX 2 9 0 -3
BITMAP
80
00
00
00
40
40
80
80
80
ENDCHAR
STARTCHAR less
ENCODING 60
SWIDTH 487 0
DWIDTH 8 0
BBX 7 7 0 0
BITMAP
02
04
08
30
40
F0
0E
ENDCHAR
STARTCHAR equal
ENCODING 61
SWIDTH 524 0
DWIDTH 8 0
BBX 8 4 0 2
BITMAP
FF
00
00
FF
ENDCHAR
STARTCHAR greater
ENCODING 62
SWIDTH 403 0
DWIDTH 6 0
BBX 6 7 0 0
BITMAP
C0
38
04
0C
10
60
C0
ENDCHAR
STARTCHAR question
ENCODING 63
SWIDTH 272 0
DWIDTH 4 0
BBX 4 14 0 0
BITMAP
60
90
10
10
10
20
20
40
70
00
00
00
00
10
ENDCHAR
STARTCHAR at
ENCODING 64
SWIDTH 815 0
DWIDTH 13 0
BBX 13 14 0 0
BITMAP
1F80
2040
4030
4010
8788
8848
8888
9090
9090
4960
2600
3000
1810
07E0
ENDCHAR
STARTCHAR A
ENCODING 65
SWIDTH 562 0
DWIDTH 9 0
BBX 9 12 0 0
BITMAP
3C00
4200
4200
4100
4100
8100
8100
7F00
4080
4080
4080
4100
ENDCHAR
STARTCHAR B
ENCODING 66
SWIDTH 741 0
DWIDTH 12 0
BBX 12 11 0 0
BITMAP
7E00
9100
1100
1100
0E00
0980
0840
0820
0830
0820
07E0
ENDCHAR
STARTCHAR C
ENCODING 67
SWIDTH 515 0
DWIDTH 8 0
BBX 8 10 0 0
BITMAP
1C
24
40
80
80
80
80
80
43
3C
ENDCHAR
STARTCHAR D
ENCODING 68
SWIDTH 741 0
DWIDTH 12 0
BBX 11 10 0 0
BITMAP
7E00
8580
0440
0420
0420
0420
0420
0420
0460
0F80
ENDCHAR
STARTCHAR E
ENCODING 69
SWIDTH 524 0
DWIDTH 8 0
BBX 8 10 0 0
BITMAP
7E
80
80
80
FE
80
80
80
80
7F
ENDCHAR
STARTCHAR F
ENCODING 70
SWIDTH 514 0
DWIDTH 8 0
BBX 11 10 -1 0
BITMAP
0E00
F9C0
1020
1000
1000
3F00
0800
0800
0800
0800
ENDCHAR
STARTCHAR G
ENCODING 71
SWIDTH 571 0
DWIDTH 9 0
BBX 8 9 1 -1
BITMAP
1E
60
80
96
8A
82
82
7E
01
ENDCHAR
STARTCHAR H
ENCODING 72
SWIDTH 524 0
DWIDTH 8 0
BBX 8 11 0 0
BITMAP
01
82
82
42
42
4E
72
C1
41
41
41
ENDCHAR
STARTCHAR I
ENCODING 73
SWIDTH 167 0
DWIDTH 3 0
BBX 2 9 0 0
BITMAP
80
80
40
40
40
40
40
40
40
ENDCHAR
STARTCHAR J
ENCODING 74
SWIDTH 439 0
DWIDTH 7 0
BBX 7 11 0 0
BITMAP
04
04
04
04
02
82
82
42
22
12
0C
ENDCHAR
STARTCHAR K
ENCODING 75
SWIDTH 468 0
DWIDTH 8 0
BBX 7 9 0 0
BITMAP
88
90
A0
40
40
60
50
4C
42
ENDCHAR
STARTCHAR L
ENCODING 76
SWIDTH 346 0
DWIDTH 6 0
BBX 5 9 0 0
BITMAP
80
40
40
80
80
80
80
80
78
ENDCHAR
STARTCHAR M
ENCODING 77
SWIDTH 534 0
DWIDTH 9 0
BBX 8 10 0 0
BITMAP
82
43
62
7E
42
41
41
41
41
41
ENDCHAR
STARTCHAR N
ENCODING 78
SWIDTH 609 0
DWIDTH 10 0
BBX 9 9 0 0
BITMAP
8000
4100
4100
4080
6080
A080
9080
C880
8700
ENDCHAR
STARTCHAR O
ENCODING 79
SWIDTH 609 0
DWIDTH 10 0
BBX 9 8 0 0
BITMAP
3000
4E00
8100
8080
8080
4080
6180
1E00
ENDCHAR
STARTCHAR P
ENCODING 80
SWIDTH 627 0
DWIDTH 10 0
BBX 10 10 0 0
BITMAP
3000
CF00
8880
0840
0840
0880
0F00
0800
0800
0800
ENDCHAR
STARTCHAR Q
ENCODING 81
SWIDTH 642 0
DWIDTH 10 0
BBX 10 11 0 -2
BITMAP
1800
2600
4300
8480
8080
8840
4440
2380
1F00
0080
0040
ENDCHAR
STARTCHAR R
ENCODING 82
SWIDTH 579 0
DWIDTH 9 0
BBX 9 11 0 -1
BITMAP
7C00
8300
2100
2100
3E00
2000
3000
2800
1400
1300
0080
ENDCHAR
STARTCHAR S
ENCODING 83
SWIDTH 627 0
DWIDTH 10 0
BBX 10 10 0 0
BITMAP
0C00
3300
2080
3000
0800
0600
8180
8040
4040
3F80
ENDCHAR
STARTCHAR T
ENCODING 84
SWIDTH 581 0
DWIDTH 9 0
BBX 11 10 0 0
BITMAP
FFC0
0420
0400
0400
0400
0400
0400
0200
0200
0200
ENDCHAR
STARTCHAR U
ENCODING 85
SWIDTH 571 0
DWIDTH 9 0
BBX 9 9 0 0
BITMAP
4200
8200
8300
8100
8100
4100
4100
6680
3880
ENDCHAR
STARTCHAR V
ENCODING 86
SWIDTH 421 0
DWIDTH 7 0
BBX 6 8 0 0
BITMAP
84
44
44
24
24
38
18
10
ENDCHAR
STARTCHAR W
ENCODING 87
SWIDTH 703 0
DWIDTH 11 0
BBX 11 8 0 0
BITMAP
8040
8040
8040
8820
8420
4C20
5A40
3180
ENDCHAR
STARTCHAR X
ENCODING 88
SWIDTH 534 0
DWIDTH 9 0
BBX 8 9 0 -1
BITMAP
41
22
14
18
38
28
44
82
80
ENDCHAR
STARTCHAR Y
ENCODING 89
SWIDTH 403 0
DWIDTH 6 0
BBX 6 10 0 0
BITMAP
84
44
64
3C
08
08
10
10
10
10
ENDCHAR
STARTCHAR Z
ENCODING 90
SWIDTH 571 0
DWIDTH 9 0
BBX 9 10 0 0
BITMAP
7800
8400
0400
0400
0400
3F00
0800
1000
1180
1F00
ENDCHAR
STARTCHAR bracketleft
ENCODING 91
SWIDTH 477 0
DWIDTH 8 0
BBX 9 13 0 -2
BITMAP
1E00
E000
8000
4000
4000
4000
4000
4000
2000
2000
2000
3F80
4000
ENDCHAR
STARTCHAR backslash
ENCODING 92
SWIDTH 430 0
DWIDTH 7 0
BBX 7 9 0 0
BITMAP
80
40
60
20
10
08
0C
04
06
ENDCHAR
STARTCHAR bracketright
ENCODING 93
SWIDTH 430 0
DWIDTH 7 0
BBX 7 15 0 -2
BITMAP
F8
04
04
04
04
04
04
04
04
04
04
04
02
7E
3C
ENDCHAR
STARTCHAR asciicircum
ENCODING 94
SWIDTH 375 0
DWIDTH 6 0
BBX 4 4 1 8
BITMAP
40
60
D0
90
ENDCHAR
STARTCHAR underscore
ENCODING 95
SWIDTH 656 0
DWIDTH 11 0
BBX 10 2 0 0
BITMAP
C000
3FC0
ENDCHAR
STARTCHAR grave
ENCODING 96
SWIDTH 172 0
DWIDTH 3 0
BBX 2 2 0 7
BITMAP
80
40
ENDCHAR
STARTCHAR a
ENCODING 97
SWIDTH 505 0
DWIDTH 8 0
BBX 8 8 0 0
BITMAP
38
04
02
3E
42
81
40
3F
ENDCHAR
STARTCHAR b
ENCODING 98
SWIDTH 497 0
DWIDTH 8 0
BBX 8 10 0 0
BITMAP
80
80
80
80
40
7C
42
41
63
3E
ENDCHAR
STARTCHAR c
ENCODING 99
SWIDTH 449 0
DWIDTH 7 0
BBX 7 7 0 0
BITMAP
38
44
80
80
80
40
3E
ENDCHAR
STARTCHAR d
ENCODING 100
SWIDTH 524 0
DWIDTH 8 0
BBX 8 12 0 0
BITMAP
04
06
02
02
02
3A
47
C3
83
87
4D
30
ENDCHAR
STARTCHAR e
ENCODING 101
SWIDTH 515 0
DWIDTH 8 0
BBX 8 8 0 0
BITMAP
38
44
84
88
F0
40
60
1F
ENDCHAR
STARTCHAR f
ENCODING 102
SWIDTH 376 0
DWIDTH 6 0
BBX 7 11 0 0
BITMAP
1C
22
40
40
40
20
FC
20
10
10
08
ENDCHAR
STARTCHAR g
ENCODING 103
SWIDTH 366 0
DWIDTH 6 0
BBX 8 15 -2 -8
BITMAP
04
0A
12
22
23
17
09
01
01
01
01
81
C1
72
0C
ENDCHAR
STARTCHAR h
ENCODING 104
SWIDTH 427 0
DWIDTH 7 0
BBX 6 11 0 0
BITMAP
80
80
80
80
78
44
44
44
44
44
44
ENDCHAR
STARTCHAR i
ENCODING 105
SWIDTH 174 0
DWIDTH 3 0
BBX 3 10 0 0
BITMAP
80
00
00
40
40
40
40
40
40
60
ENDCHAR
STARTCHAR j
ENCODING 106
SWIDTH 200 0
DWIDTH 3 0
BBX 6 16 -2 -7
BITMAP
30
00
00
10
10
08
08
08
08
08
08
84
44
44
28
18
ENDCHAR
STARTCHAR k
ENCODING 107
SWIDTH 403 0
DWIDTH 6 0
BBX 6 10 0 0
BITMAP
80
80
80
88
50
60
40
40
70
4C
ENDCHAR
STARTCHAR l
ENCODING 108
SWIDTH 120 0
DWIDTH 2 0
BBX 2 9 0 0
BITMAP
80
80
80
80
80
80
C0
80
80
ENDCHAR
STARTCHAR m
ENCODING 109
SWIDTH 750 0
DWIDTH 12 0
BBX 12 7 0 0
BITMAP
00C0
FB60
C620
8420
4410
4210
4020
ENDCHAR
STARTCHAR n
ENCODING 110
SWIDTH 459 0
DWIDTH 7 0
BBX 7 7 0 0
BITMAP
38
C4
C6
42
42
42
42
ENDCHAR
STARTCHAR o
ENCODING 111
SWIDTH 487 0
DWIDTH 8 0
BBX 7 7 0 0
BITMAP
3C
46
82
82
82
46
3C
ENDCHAR
STARTCHAR p
ENCODING 112
SWIDTH 520 0
DWIDTH 8 0
BBX 8 12 0 -6
BITMAP
08
76
41
C1
F3
4C
40
40
40
60
20
20
ENDCHAR
STARTCHAR q
ENCODING 113
SWIDTH 412 0
DWIDTH 7 0
BBX 6 13 0 -5
BITMAP
38
44
84
84
84
84
4C
3C
04
04
04
04
04
ENDCHAR
STARTCHAR r
ENCODING 114
SWIDTH 346 0
DWIDTH 6 0
BBX 5 7 0 0
BITMAP
F8
80
80
80
40
40
40
ENDCHAR
STARTCHAR s
ENCODING 115
SWIDTH 514 0
DWIDTH 8 0
BBX 8 7 0 0
BITMAP
78
84
40
3E
01
C1
3E
ENDCHAR
STARTCHAR t
ENCODING 116
SWIDTH 328 0
DWIDTH 5 0
BBX 5 10 0 0
BITMAP
20
20
20
20
F8
20
20
20
20
20
ENDCHAR
STARTCHAR u
ENCODING 117
SWIDTH 501 0
DWIDTH 8 0
BBX 8 8 0 0
BITMAP
80
82
82
82
46
46
39
02
ENDCHAR
STARTCHAR v
ENCODING 118
SWIDTH 389 0
DWIDTH 6 0
BBX 6 6 0 0
BITMAP
80
44
48
28
30
10
ENDCHAR
STARTCHAR w
ENCODING 119
SWIDTH 656 0
DWIDTH 11 0
BBX 10 7 0 0
BITMAP
8000
8080
8440
8440
8440
4E40
3380
ENDCHAR
STARTCHAR x
ENCODING 120
SWIDTH 448 0
DWIDTH 7 0
BBX 7 7 0 -1
BITMAP
86
4C
30
30
48
44
02
ENDCHAR
STARTCHAR y
ENCODING 121
SWIDTH 487 0
DWIDTH 8 0
BBX 8 15 0 -8
BITMAP
82
82
82
82
42
26
19
01
01
02
02
82
42
26
1C
ENDCHAR
STARTCHAR z
ENCODING 122
SWIDTH 459 0
DWIDTH 7 0
BBX 7 8 0 0
BITMAP
F8
08
08
0C
70
20
62
3C
ENDCHAR
STARTCHAR braceleft
ENCODING 123
SWIDTH 393 0
DWIDTH 6 0
BBX 6 16 0 -2
BITMAP
3C
40
80
80
80
60
38
38
48
08
10
20
40
40
64
18
ENDCHAR
STARTCHAR bar
ENCODING 124
SWIDTH 149 0
DWIDTH 2 0
BBX 2 10 0 0
BITMAP
80
80
40
40
40
40
40
40
40
40
ENDCHAR
STARTCHAR braceright
ENCODING 125
SWIDTH 440 0
DWIDTH 7 0
BBX 7 19 0 -4
BITMAP
F8
C4
04
08
10
20
20
3C
20
20
10
08
04
04
02
02
84
C4
38
ENDCHAR
STARTCHAR asciitilde
ENCODING 126
SWIDTH 402 0
DWIDTH 6 0
BBX 6 3 0 6
BITMAP
44
B8
80
ENDCHAR
STARTCHAR nonbreakingspace
ENCODING 160
SWIDTH 375 0
DWIDTH 6 0
BBX 1 1 0 0
BITMAP
00
ENDCHAR
STARTCHAR exclamdown
ENCODING 161
SWIDTH 149 0
DWIDTH 2 0
BBX 2 11 0 0
BITMAP
C0
00
00
80
40
80
80
80
80
80
80
ENDCHAR
STARTCHAR cent
ENCODING 162
SWIDTH 449 0
DWIDTH 7 0
BBX 7 10 0 -1
BITMAP
20
10
38
54
90
90
90
50
3E
10
ENDCHAR
STARTCHAR sterling
ENCODING 163
SWIDTH 758 0
DWIDTH 12 0
BBX 12 12 0 0
BITMAP
0040
01A0
0210
0200
0400
1FC0
2400
0400
0800
0800
FF00
6080
ENDCHAR
STARTCHAR currency
ENCODING 164
SWIDTH 618 0
DWIDTH 10 0
BBX 9 9 0 0
BITMAP
8000
4E80
3100
2080
4080
2100
2300
7D00
4100
ENDCHAR
STARTCHAR yen
ENCODING 165
SWIDTH 389 0
DWIDTH 6 0
BBX 6 12 0 0
BITMAP
40
44
44
28
28
10
10
FC
10
78
10
30
ENDCHAR
STARTCHAR brokenbar
ENCODING 166
SWIDTH 117 0
DWIDTH 2 0
BBX 1 9 0 0
BITMAP
80
80
80
80
80
80
80
80
80
ENDCHAR
STARTCHAR section
ENCODING 167
SWIDTH 514 0
DWIDTH 8 0
BBX 7 11 1 0
BITMAP
20
DC
84
C0
FE
82
82
7C
02
82
7C
ENDCHAR
STARTCHAR dieresis
ENCODING 168
SWIDTH 397 0
DWIDTH 6 0
BBX 4 1 1 7
BITMAP
D0
ENDCHAR
STARTCHAR copyright
ENCODING 169
SWIDTH 667 0
DWIDTH 11 0
BBX 9 9 1 0
BITMAP
3C00
4300
9D00
A480
A080
A080
A080
DF80
3E00
ENDCHAR
STARTCHAR ordfeminine
ENCODING 170
SWIDTH 266 0
DWIDTH 4 0
BBX 4 4 0 4
BITMAP
60
70
90
70
ENDCHAR
STARTCHAR guillemotleft
ENCODING 171
SWIDTH 755 0
DWIDTH 12 0
BBX 11 8 0 0
BITMAP
0020
0240
0580
0A00
3400
4F00
F0E0
0E00
ENDCHAR
STARTCHAR logicalnot
ENCODING 172
SWIDTH 369 0
DWIDTH 6 0
BBX 5 2 1 4
BITMAP
F8
10
ENDCHAR
STARTCHAR hyphen_
ENCODING 173
SWIDTH 375 0
DWIDTH 6 0
BBX 5 1 0 4
BITMAP
F8
ENDCHAR
STARTCHAR registered
ENCODING 174
SWIDTH 708 0
DWIDTH 11 0
BBX 9 9 1 0
BITMAP
3E00
C300
FE80
9280
9C80
9880
9480
6300
3C00
ENDCHAR
STARTCHAR macron
ENCODING 175
SWIDTH 287 0
DWIDTH 5 0
BBX 4 2 1 7
BITMAP
E0
90
ENDCHAR
STARTCHAR degree
ENCODING 176
SWIDTH 254 0
DWIDTH 4 0
BBX 3 5 0 4
BITMAP
60
A0
A0
A0
60
ENDCHAR
STARTCHAR plusminus
ENCODING 177
SWIDTH 459 0
DWIDTH 7 0
BBX 7 8 0 0
BITMAP
20
10
10
7E
90
10
3E
C0
ENDCHAR
STARTCHAR twosuperior
ENCODING 178
SWIDTH 296 0
DWIDTH 5 0
BBX 4 5 0 3
BITMAP
70
10
10
20
F0
ENDCHAR
STARTCHAR threesuperior
ENCODING 179
SWIDTH 204 0
DWIDTH 3 0
BBX 3 5 0 4
BITMAP
E0
40
E0
A0
60
ENDCHAR
STARTCHAR acute
ENCODING 180
SWIDTH 180 0
DWIDTH 3 0
BBX 3 3 0 6
BITMAP
20
40
80
ENDCHAR
STARTCHAR mu
ENCODING 181
SWIDTH 501 0
DWIDTH 8 0
BBX 8 9 0 -1
BITMAP
80
84
82
82
C2
C6
FA
91
80
ENDCHAR
STARTCHAR paragraph
ENCODING 182
SWIDTH 413 0
DWIDTH 7 0
BBX 6 8 0 0
BITMAP
7C
FC
F4
74
14
14
14
14
ENDCHAR
STARTCHAR periodcentered
ENCODING 183
SWIDTH 212 0
DWIDTH 3 0
BBX 2 2 1 3
BITMAP
80
C0
ENDCHAR
STARTCHAR cedilla
ENCODING 184
SWIDTH 445 0
DWIDTH 7 0
BBX 5 5 2 -5
BITMAP
80
40
30
88
70
ENDCHAR
STARTCHAR onesuperior
ENCODING 185
SWIDTH 197 0
DWIDTH 3 0
BBX 3 6 0 3
BITMAP
20
20
60
C0
40
40
ENDCHAR
STARTCHAR ordmasculine
ENCODING 186
SWIDTH 254 0
DWIDTH 4 0
BBX 3 5 0 4
BITMAP
60
A0
A0
A0
60
ENDCHAR
STARTCHAR guillemotright
ENCODING 187
SWIDTH 659 0
DWIDTH 11 0
BBX 10 8 0 0
BITMAP
0800
C600
39C0
04C0
0D80
1200
6400
C800
ENDCHAR
STARTCHAR onequarter
ENCODING 188
SWIDTH 626 0
DWIDTH 10 0
BBX 9 12 0 0
BITMAP
0800
2800
2800
6800
A800
3000
3400
1400
1880
2580
2280
2080
ENDCHAR
STARTCHAR onehalf
ENCODING 189
SWIDTH 566 0
DWIDTH 9 0
BBX 9 12 0 -1
BITMAP
2400
2800
2800
6800
A800
AF00
3100
3100
1100
2A00
2F00
2080
ENDCHAR
STARTCHAR threequarters
ENCODING 190
SWIDTH 566 0
DWIDTH 9 0
BBX 9 12 0 -1
BITMAP
0400
0800
E800
4800
2800
AC00
7480
1480
1500
1300
2080
2000
ENDCHAR
STARTCHAR questiondown
ENCODING 191
SWIDTH 272 0
DWIDTH 4 0
BBX 5 12 0 0
BITMAP
40
00
00
00
60
20
20
40
40
80
40
78
ENDCHAR
STARTCHAR Agrave
ENCODING 192
SWIDTH 562 0
DWIDTH 9 0
BBX 9 15 0 0
BITMAP
1000
0800
0400
3C00
4200
4200
4100
4100
8100
8100
7F00
4080
4080
4080
4100
ENDCHAR
STARTCHAR Aacute
ENCODING 193
SWIDTH 562 0
DWIDTH 9 0
BBX 9 15 0 0
BITMAP
0800
1000
2000
3C00
4200
4200
4100
4100
8100
8100
7F00
4080
4080
4080
4100
ENDCHAR
STARTCHAR Acircumflex
ENCODING 194
SWIDTH 562 0
DWIDTH 9 0
BBX 9 16 0 0
BITMAP
1000
1800
3C00
4400
3C00
4200
4200
4100
4100
8100
8100
7F00
4080
4080
4080
4100
ENDCHAR
STARTCHAR Atilde
ENCODING 195
SWIDTH 562 0
DWIDTH 9 0
BBX 9 15 0 0
BITMAP
2200
5C00
4000
3C00
4200
4200
4100
4100
8100
8100
7F00
4080
4080
4080
4100
ENDCHAR
STARTCHAR Adieresis
ENCODING 196
SWIDTH 562 0
DWIDTH 9 0
BBX 9 14 0 0
BITMAP
3400
0000
3C00
4200
4200
4100
4100
8100
8100
7F00
4080
4080
4080
4100
ENDCHAR
STARTCHAR Aring
ENCODING 197
SWIDTH 562 0
DWIDTH 9 0
BBX 9 15 0 0
BITMAP
0800
3800
1C00
3C00
4200
4200
4100
4100
8100
8100
7F00
4080
4080
4080
4100
ENDCHAR
STARTCHAR AE
ENCODING 198
SWIDTH 960 0
DWIDTH 15 0
BBX 15 12 0 0
BITMAP
3C00
4200
42FC
4182
4180
8180
81FC
7F80
4080
4080
4080
41FE
ENDCHAR
STARTCHAR Ccedilla
ENCODING 199
SWIDTH 515 0
DWIDTH 8 0
BBX 8 15 0 -5
BITMAP
1C
24
40
80
80
80
80
80
43
3C
20
10
0C
24
1C
ENDCHAR
STARTCHAR Egrave
ENCODING 200
SWIDTH 524 0
DWIDTH 8 0
BBX 8 13 0 0
BITMAP
10
08
00
7E
80
80
80
FE
80
80
80
80
7F
ENDCHAR
STARTCHAR Eacute
ENCODING 201
SWIDTH 524 0
DWIDTH 8 0
BBX 8 13 0 0
BITMAP
08
10
20
7E
80
80
80
FE
80
80
80
80
7F
ENDCHAR
STARTCHAR Ecircumflex
ENCODING 202
SWIDTH 524 0
DWIDTH 8 0
BBX 8 14 0 0
BITMAP
08
08
14
24
7E
80
80
80
FE
80
80
80
80
7F
ENDCHAR
STARTCHAR Edieresis
ENCODING 203
SWIDTH 524 0
DWIDTH 8 0
BBX 8 12 0 0
BITMAP
34
00
7E
80
80
80
FE
80
80
80
80
7F
ENDCHAR
STARTCHAR Igrave
ENCODING 204
SWIDTH 167 0
DWIDTH 3 0
BBX 2 12 0 0
BITMAP
80
40
00
80
80
40
40
40
40
40
40
40
ENDCHAR
STARTCHAR Iacute
ENCODING 205
SWIDTH 167 0
DWIDTH 3 0
BBX 2 12 0 0
BITMAP
40
80
80
80
80
40
40
40
40
40
40
40
ENDCHAR
STARTCHAR Icircumflex
ENCODING 206
SWIDTH 167 0
DWIDTH 3 0
BBX 5 14 -1 0
BITMAP
20
30
50
98
00
40
40
20
20
20
20
20
20
20
ENDCHAR
STARTCHAR Idieresis
ENCODING 207
SWIDTH 167 0
DWIDTH 3 0
BBX 4 11 -2 0
BITMAP
D0
00
20
20
10
10
10
10
10
10
10
ENDCHAR
STARTCHAR Eth
ENCODING 208
SWIDTH 741 0
DWIDTH 12 0
BBX 11 10 0 0
BITMAP
7E00
8580
0440
0420
0FA0
0420
0420
0420
0460
0F80
ENDCHAR
STARTCHAR Ntilde
ENCODING 209
SWIDTH 609 0
DWIDTH 10 0
BBX 9 11 0 0
BITMAP
1100
2E00
A000
4100
4100
4080
6080
A080
9080
C880
8700
ENDCHAR
STARTCHAR Ograve
ENCODING 210
SWIDTH 609 0
DWIDTH 10 0
BBX 9 11 0 0
BITMAP
0800
0400
0000
3000
4E00
8100
8080
8080
4080
6180
1E00
ENDCHAR
STARTCHAR Oacute
ENCODING 211
SWIDTH 609 0
DWIDTH 10 0
BBX 9 11 0 0
BITMAP
0400
0800
1000
3000
4E00
8100
8080
8080
4080
6180
1E00
ENDCHAR
STARTCHAR Ocircumflex
ENCODING 212
SWIDTH 609 0
DWIDTH 10 0
BBX 9 13 0 0
BITMAP
1000
1800
2C00
4400
0000
3000
4E00
8100
8080
8080
4080
6180
1E00
ENDCHAR
STARTCHAR Otilde
ENCODING 213
SWIDTH 609 0
DWIDTH 10 0
BBX 9 11 0 0
BITMAP
2200
5C00
4000
3000
4E00
8100
8080
8080
4080
6180
1E00
ENDCHAR
STARTCHAR Odieresis
ENCODING 214
SWIDTH 609 0
DWIDTH 10 0
BBX 9 10 0 0
BITMAP
1600
0000
3000
4E00
8100
8080
8080
4080
6180
1E00
ENDCHAR
STARTCHAR multiply
ENCODING 215
SWIDTH 448 0
DWIDTH 7 0
BBX 5 4 1 1
BITMAP
98
60
60
90
ENDCHAR
STARTCHAR Oslash
ENCODING 216
SWIDTH 609 0
DWIDTH 10 0
BBX 9 12 0 -2
BITMAP
0600
0400
3400
4E00
8900
8880
8880
5080
7180
3E00
2000
2000
ENDCHAR
STARTCHAR Ugrave
ENCODING 217
SWIDTH 571 0
DWIDTH 9 0
BBX 9 11 0 0
BITMAP
0800
0400
4200
8200
8300
8100
8100
4100
4100
6680
3880
ENDCHAR
STARTCHAR Uacute
ENCODING 218
SWIDTH 571 0
DWIDTH 9 0
BBX 9 11 0 0
BITMAP
0800
1800
5200
8200
8300
8100
8100
4100
4100
6680
3880
ENDCHAR
STARTCHAR Ucircumflex
ENCODING 219
SWIDTH 571 0
DWIDTH 9 0
BBX 9 14 0 0
BITMAP
0800
0C00
1600
2200
0000
4200
8200
8300
8100
8100
4100
4100
6680
3880
ENDCHAR
STARTCHAR Udieresis
ENCODING 220
SWIDTH 571 0
DWIDTH 9 0
BBX 9 10 0 0
BITMAP
1600
4200
8200
8300
8100
8100
4100
4100
6680
3880
ENDCHAR
STARTCHAR Yacute
ENCODING 221
SWIDTH 403 0
DWIDTH 6 0
BBX 6 13 0 0
BITMAP
08
18
20
84
44
64
3C
08
08
10
10
10
10
ENDCHAR
STARTCHAR Thorn
ENCODING 222
SWIDTH 497 0
DWIDTH 8 0
BBX 7 13 1 -3
BITMAP
80
80
80
80
80
F8
84
82
C6
FC
80
80
80
ENDCHAR
STARTCHAR germandbls
ENCODING 223
SWIDTH 590 0
DWIDTH 9 0
BBX 8 13 1 -2
BITMAP
F0
88
88
90
B0
8C
82
81
81
83
9C
80
80
ENDCHAR
STARTCHAR agrave
ENCODING 224
SWIDTH 505 0
DWIDTH 8 0
BBX 8 10 0 0
BITMAP
10
08
38
04
02
3E
42
81
40
3F
ENDCHAR
STARTCHAR aacute
ENCODING 225
SWIDTH 505 0
DWIDTH 8 0
BBX 8 11 0 0
BITMAP
08
10
20
38
04
02
3E
42
81
40
3F
ENDCHAR
STARTCHAR acircumflex
ENCODING 226
SWIDTH 505 0
DWIDTH 8 0
BBX 8 12 0 0
BITMAP
08
18
14
24
38
04
02
3E
42
81
40
3F
ENDCHAR
STARTCHAR atilde
ENCODING 227
SWIDTH 505 0
DWIDTH 8 0
BBX 8 11 0 0
BITMAP
22
5C
40
38
04
02
3E
42
81
40
3F
ENDCHAR
STARTCHAR adieresis
ENCODING 228
SWIDTH 505 0
DWIDTH 8 0
BBX 8 10 0 0
BITMAP
34
00
38
04
02
3E
42
81
40
3F
ENDCHAR
STARTCHAR aring
ENCODING 229
SWIDTH 505 0
DWIDTH 8 0
BBX 8 10 0 0
BITMAP
38
28
38
04
02
3E
42
81
40
3F
ENDCHAR
STARTCHAR ae
ENCODING 230
SWIDTH 881 0
DWIDTH 14 0
BBX 14 8 0 0
BITMAP
38E0
0510
0310
3E30
42C0
8100
4100
3EFC
ENDCHAR
STARTCHAR ccedilla
ENCODING 231
SWIDTH 449 0
DWIDTH 7 0
BBX 7 12 0 -5
BITMAP
38
44
80
80
80
40
3E
20
10
0C
24
18
ENDCHAR
STARTCHAR egrave
ENCODING 232
SWIDTH 515 0
DWIDTH 8 0
BBX 8 11 0 0
BITMAP
20
18
00
38
44
84
88
F0
40
60
1F
ENDCHAR
STARTCHAR eacute
ENCODING 233
SWIDTH 515 0
DWIDTH 8 0
BBX 8 11 0 0
BITMAP
08
10
20
38
44
84
88
F0
40
60
1F
ENDCHAR
STARTCHAR ecircumflex
ENCODING 234
SWIDTH 515 0
DWIDTH 8 0
BBX 8 12 0 0
BITMAP
08
08
14
24
38
44
84
88
F0
40
60
1F
ENDCHAR
STARTCHAR edieresis
ENCODING 235
SWIDTH 515 0
DWIDTH 8 0
BBX 8 10 0 0
BITMAP
2C
00
38
44
84
88
F0
40
60
1F
ENDCHAR
STARTCHAR igrave
ENCODING 236
SWIDTH 174 0
DWIDTH 3 0
BBX 3 10 0 0
BITMAP
80
40
00
40
40
40
40
40
40
60
ENDCHAR
STARTCHAR iacute
ENCODING 237
SWIDTH 174 0
DWIDTH 3 0
BBX 3 10 0 0
BITMAP
40
80
00
40
40
40
40
40
40
60
ENDCHAR
STARTCHAR icircumflex
ENCODING 238
SWIDTH 174 0
DWIDTH 3 0
BBX 5 12 -1 0
BITMAP
20
30
50
88
00
20
20
20
20
20
20
30
ENDCHAR
STARTCHAR idieresis
ENCODING 239
SWIDTH 174 0
DWIDTH 3 0
BBX 4 9 -1 0
BITMAP
D0
00
20
20
20
20
20
20
30
ENDCHAR
STARTCHAR eth
ENCODING 240
SWIDTH 407 0
DWIDTH 7 0
BBX 6 8 0 0
BITMAP
F4
1C
24
3C
44
84
84
7C
ENDCHAR
STARTCHAR ntilde
ENCODING 241
SWIDTH 459 0
DWIDTH 7 0
BBX 7 10 0 0
BITMAP
44
B8
80
38
C4
C6
42
42
42
42
ENDCHAR
STARTCHAR ograve
ENCODING 242
SWIDTH 487 0
DWIDTH 8 0
BBX 7 9 0 0
BITMAP
10
08
3C
46
82
82
82
46
3C
ENDCHAR
STARTCHAR oacute
ENCODING 243
SWIDTH 487 0
DWIDTH 8 0
BBX 7 10 0 0
BITMAP
08
10
20
3C
46
82
82
82
46
3C
ENDCHAR
STARTCHAR ocircumflex
ENCODING 244
SWIDTH 487 0
DWIDTH 8 0
BBX 7 11 0 0
BITMAP
10
18
2C
44
3C
46
82
82
82
46
3C
ENDCHAR
STARTCHAR otilde
ENCODING 245
SWIDTH 487 0
DWIDTH 8 0
BBX 7 9 0 0
BITMAP
22
5C
3C
46
82
82
82
46
3C
ENDCHAR
STARTCHAR odieresis
ENCODING 246
SWIDTH 487 0
DWIDTH 8 0
BBX 7 8 0 0
BITMAP
2C
3C
46
82
82
82
46
3C
ENDCHAR
STARTCHAR divide
ENCODING 247
SWIDTH 335 0
DWIDTH 5 0
BBX 4 4 1 1
BITMAP
40
F0
00
40
ENDCHAR
STARTCHAR oslash
ENCODING 248
SWIDTH 487 0
DWIDTH 8 0
BBX 7 7 0 0
BITMAP
1C
6E
8A
92
B2
66
7C
ENDCHAR
STARTCHAR ugrave
ENCODING 249
SWIDTH 501 0
DWIDTH 8 0
BBX 8 11 0 0
BITMAP
20
10
00
80
82
82
82
46
46
39
02
ENDCHAR
STARTCHAR uacute
ENCODING 250
SWIDTH 501 0
DWIDTH 8 0
BBX 8 11 0 0
BITMAP
08
10
20
80
82
82
82
46
46
39
02
ENDCHAR
STARTCHAR ucircumflex
ENCODING 251
SWIDTH 501 0
DWIDTH 8 0
BBX 8 12 0 0
BITMAP
10
18
34
24
80
82
82
82
46
46
39
02
ENDCHAR
STARTCHAR udieresis
ENCODING 252
SWIDTH 501 0
DWIDTH 8 0
BBX 8 9 0 0
BITMAP
2C
80
82
82
82
46
46
39
02
ENDCHAR
STARTCHAR yacute
ENCODING 253
SWIDTH 487 0
DWIDTH 8 0
BBX 8 19 0 -8
BITMAP
08
10
20
00
82
82
82
82
42
26
19
01
01
02
02
82
42
26
1C
ENDCHAR
STARTCHAR thorn
ENCODING 254
SWIDTH 520 0
DWIDTH 8 0
BBX 8 11 0 -3
BITMAP
40
80
BE
43
41
41
FE
80
80
80
80
ENDCHAR
STARTCHAR ydieresis
ENCODING 255
SWIDTH 487 0
DWIDTH 8 0
BBX 8 17 0 -8
BITMAP
2C
00
82
82
82
82
42
26
19
01
01
02
02
82
42
26
1C
ENDCHAR
STARTCHAR Amacron
ENCODING 256
SWIDTH 562 0
DWIDTH 9 0
BBX 9 15 0 0
BITMAP
1C00
2000
0000
3C00
4200
4200
4100
4100
8100
8100
7F00
4080
4080
4080
4100
ENDCHAR
STARTCHAR amacron
ENCODING 257
SWIDTH 505 0
DWIDTH 8 0
BBX 8 11 0 0
BITMAP
3C
20
00
38
04
02
3E
42
81
40
3F
ENDCHAR
STARTCHAR Abreve
ENCODING 258
SWIDTH 562 0
DWIDTH 9 0
BBX 9 15 0 0
BITMAP
1400
0800
0000
3C00
4200
4200
4100
4100
8100
8100
7F00
4080
4080
4080
4100
ENDCHAR
STARTCHAR abreve
ENCODING 259
SWIDTH 505 0
DWIDTH 8 0
BBX 8 10 0 0
BITMAP
28
10
38
04
02
3E
42
81
40
3F
ENDCHAR
STARTCHAR Aogonek
ENCODING 260
SWIDTH 562 0
DWIDTH 9 0
BBX 9 14 0 -2
BITMAP
3C00
4200
4200
4100
4100
8100
8100
7F00
4080
4080
4080
4100
0200
0380
ENDCHAR
STARTCHAR aogonek
ENCODING 261
SWIDTH 505 0
DWIDTH 8 0
BBX 8 10 0 -2
BITMAP
38
04
02
3E
42
81
40
3F
08
07
ENDCHAR
STARTCHAR Cacute
ENCODING 262
SWIDTH 515 0
DWIDTH 8 0
BBX 8 13 0 0
BITMAP
04
08
10
1C
24
40
80
80
80
80
80
43
3C
ENDCHAR
STARTCHAR cacute
ENCODING 263
SWIDTH 449 0
DWIDTH 7 0
BBX 7 11 0 0
BITMAP
08
10
20
00
38
44
80
80
80
40
3E
ENDCHAR
STARTCHAR Ccircumflex
ENCODING 264
SWIDTH 515 0
DWIDTH 8 0
BBX 8 14 0 0
BITMAP
08
08
14
24
1C
24
40
80
80
80
80
80
43
3C
ENDCHAR
STARTCHAR ccircumflex
ENCODING 265
SWIDTH 449 0
DWIDTH 7 0
BBX 7 12 0 0
BITMAP
10
18
2C
44
00
38
44
80
80
80
40
3E
ENDCHAR
STARTCHAR Cdotaccent
ENCODING 266
SWIDTH 515 0
DWIDTH 8 0
BBX 8 13 0 0
BITMAP
08
08
00
1C
24
40
80
80
80
80
80
43
3C
ENDCHAR
STARTCHAR cdotaccent
ENCODING 267
SWIDTH 449 0
DWIDTH 7 0
BBX 7 9 0 0
BITMAP
10
10
38
44
80
80
80
40
3E
ENDCHAR
STARTCHAR Ccaron
ENCODING 268
SWIDTH 515 0
DWIDTH 8 0
BBX 8 13 0 0
BITMAP
12
0C
00
1C
24
40
80
80
80
80
80
43
3C
ENDCHAR
STARTCHAR ccaron
ENCODING 269
SWIDTH 449 0
DWIDTH 7 0
BBX 7 10 0 0
BITMAP
64
18
00
38
44
80
80
80
40
3E
ENDCHAR
STARTCHAR Dcaron
ENCODING 270
SWIDTH 741 0
DWIDTH 12 0
BBX 11 12 0 0
BITMAP
0900
0600
7E00
8580
0440
0420
0420
0420
0420
0420
0460
0F80
ENDCHAR
STARTCHAR dcaron
ENCODING 271
SWIDTH 582 0
DWIDTH 9 0
BBX 9 12 0 0
BITMAP
0500
0680
0280
0280
0200
3A00
4700
C300
8300
8700
4D00
3000
ENDCHAR
STARTCHAR Dcroat
ENCODING 272
SWIDTH 741 0
DWIDTH 12 0
BBX 11 10 0 0
BITMAP
7E00
8580
0440
0420
0420
1E20
0420
0420
0460
0F80
ENDCHAR
STARTCHAR dcroat
ENCODING 273
SWIDTH 524 0
DWIDTH 8 0
BBX 8 12 0 0
BITMAP
04
04
02
1F
02
7A
47
83
83
87
4D
38
ENDCHAR
STARTCHAR Emacron
ENCODING 274
SWIDTH 524 0
DWIDTH 8 0
BBX 8 12 0 0
BITMAP
1C
20
7E
80
80
80
FE
80
80
80
80
7F
ENDCHAR
STARTCHAR emacron
ENCODING 275
SWIDTH 515 0
DWIDTH 8 0
BBX 8 11 0 0
BITMAP
1C
20
00
38
44
84
88
F0
40
60
1F
ENDCHAR
STARTCHAR Ebreve
ENCODING 276
SWIDTH 524 0
DWIDTH 8 0
BBX 8 13 0 0
BITMAP
28
10
00
7E
80
80
80
FE
80
80
80
80
7F
ENDCHAR
STARTCHAR ebreve
ENCODING 277
SWIDTH 515 0
DWIDTH 8 0
BBX 8 11 0 0
BITMAP
14
08
00
38
44
84
88
F0
40
60
1F
ENDCHAR
STARTCHAR Edotaccent
ENCODING 278
SWIDTH 524 0
DWIDTH 8 0
BBX 8 12 0 0
BITMAP
10
10
7E
80
80
80
FE
80
80
80
80
7F
ENDCHAR
STARTCHAR edotaccent
ENCODING 279
SWIDTH 515 0
DWIDTH 8 0
BBX 8 11 0 0
BITMAP
10
10
00
38
44
84
88
F0
40
60
1F
ENDCHAR
STARTCHAR Eogonek
ENCODING 280
SWIDTH 524 0
DWIDTH 8 0
BBX 8 12 0 -2
BITMAP
7E
80
80
80
FE
80
80
80
80
7F
08
0E
ENDCHAR
STARTCHAR eogonek
ENCODING 281
SWIDTH 515 0
DWIDTH 8 0
BBX 8 10 0 -2
BITMAP
38
44
84
88
F0
40
60
1F
08
0E
ENDCHAR
STARTCHAR Ecaron
ENCODING 282
SWIDTH 524 0
DWIDTH 8 0
BBX 8 12 0 0
BITMAP
24
18
7E
80
80
80
FE
80
80
80
80
7F
ENDCHAR
STARTCHAR ecaron
ENCODING 283
SWIDTH 515 0
DWIDTH 8 0
BBX 8 11 0 0
BITMAP
24
18
00
38
44
84
88
F0
40
60
1F
ENDCHAR
STARTCHAR Gcircumflex
ENCODING 284
SWIDTH 571 0
DWIDTH 9 0
BBX 8 14 1 -1
BITMAP
08
0C
1E
22
00
1E
60
80
96
8A
82
82
7E
01
ENDCHAR
STARTCHAR gcircumflex
ENCODING 285
SWIDTH 366 0
DWIDTH 6 0
BBX 8 20 -2 -8
BITMAP
08
0C
1A
12
00
04
0A
12
22
23
17
09
01
01
01
01
81
C1
72
0C
ENDCHAR
STARTCHAR Gbreve
ENCODING 286
SWIDTH 571 0
DWIDTH 9 0
BBX 8 11 1 -1
BITMAP
28
10
1E
60
80
96
8A
82
82
7E
01
ENDCHAR
STARTCHAR gbreve
ENCODING 287
SWIDTH 366 0
DWIDTH 6 0
BBX 8 17 -2 -8
BITMAP
14
08
04
0A
12
22
23
17
09
01
01
01
01
81
C1
72
0C
ENDCHAR
STARTCHAR Gdotaccent
ENCODING 288
SWIDTH 571 0
DWIDTH 9 0
BBX 8 11 1 -1
BITMAP
08
08
1E
60
80
96
8A
82
82
7E
01
ENDCHAR
STARTCHAR gdotaccent
ENCODING 289
SWIDTH 366 0
DWIDTH 6 0
BBX 8 17 -2 -8
BITMAP
08
08
04
0A
12
22
23
17
09
01
01
01
01
81
C1
72
0C
ENDCHAR
STARTCHAR Gcommaaccent
ENCODING 290
SWIDTH 571 0
DWIDTH 9 0
BBX 8 13 1 -5
BITMAP
1E
60
80
96
8A
82
82
7E
01
00
10
10
10
ENDCHAR
STARTCHAR gcommaaccent
ENCODING 291
SWIDTH 366 0
DWIDTH 6 0
BBX 8 22 -2 -8
BITMAP
08
08
08
08
00
00
00
04
0A
12
22
23
17
09
01
01
01
01
81
C1
72
0C
ENDCHAR
STARTCHAR Hcircumflex
ENCODING 292
SWIDTH 524 0
DWIDTH 8 0
BBX 8 16 0 0
BITMAP
08
08
14
24
00
01
82
82
42
42
4E
72
C1
41
41
41
ENDCHAR
STARTCHAR hcircumflex
ENCODING 293
SWIDTH 427 0
DWIDTH 7 0
BBX 6 13 0 0
BITMAP
10
18
AC
C4
80
80
78
44
44
44
44
44
44
ENDCHAR
STARTCHAR hbar
ENCODING 295
SWIDTH 427 0
DWIDTH 7 0
BBX 7 11 -1 0
BITMAP
40
40
F0
40
3C
22
22
22
22
22
22
ENDCHAR
STARTCHAR Itilde
ENCODING 296
SWIDTH 167 0
DWIDTH 3 0
BBX 5 11 -1 0
BITMAP
C8
B0
C0
40
20
20
20
20
20
20
20
ENDCHAR
STARTCHAR itilde
ENCODING 297
SWIDTH 174 0
DWIDTH 3 0
BBX 6 11 -1 0
BITMAP
08
FC
80
00
20
20
20
20
20
20
30
ENDCHAR
STARTCHAR imacron
ENCODING 299
SWIDTH 174 0
DWIDTH 3 0
BBX 4 10 -1 0
BITMAP
70
80
00
20
20
20
20
20
20
30
ENDCHAR
STARTCHAR Ibreve
ENCODING 300
SWIDTH 167 0
DWIDTH 3 0
BBX 3 12 0 0
BITMAP
A0
40
00
80
80
40
40
40
40
40
40
40
ENDCHAR
STARTCHAR ibreve
ENCODING 301
SWIDTH 174 0
DWIDTH 3 0
BBX 3 10 0 0
BITMAP
A0
C0
00
40
40
40
40
40
40
60
ENDCHAR
STARTCHAR Iogonek
ENCODING 302
SWIDTH 167 0
DWIDTH 3 0
BBX 3 11 0 -2
BITMAP
80
80
40
40
40
40
40
40
40
80
E0
ENDCHAR
STARTCHAR iogonek
ENCODING 303
SWIDTH 174 0
DWIDTH 3 0
BBX 3 12 0 -2
BITMAP
80
00
00
40
40
40
40
40
40
60
80
E0
ENDCHAR
STARTCHAR Idotaccent
ENCODING 304
SWIDTH 167 0
DWIDTH 3 0
BBX 2 12 0 0
BITMAP
80
80
00
80
80
40
40
40
40
40
40
40
ENDCHAR
STARTCHAR dotlessi
ENCODING 305
SWIDTH 174 0
DWIDTH 3 0
BBX 2 7 1 0
BITMAP
80
80
80
80
80
80
C0
ENDCHAR
STARTCHAR Jcircumflex
ENCODING 308
SWIDTH 439 0
DWIDTH 7 0
BBX 7 16 0 0
BITMAP
04
06
0A
12
00
04
04
04
04
02
82
82
42
22
12
0C
ENDCHAR
STARTCHAR jcircumflex
ENCODING 309
SWIDTH 200 0
DWIDTH 3 0
BBX 6 19 -2 -7
BITMAP
10
18
2C
44
00
00
10
10
08
08
08
08
08
08
84
44
44
28
18
ENDCHAR
STARTCHAR Kcommaaccent
ENCODING 310
SWIDTH 468 0
DWIDTH 8 0
BBX 7 14 0 -5
BITMAP
88
90
A0
40
40
60
50
4C
42
00
00
10
10
10
ENDCHAR
STARTCHAR kcommaaccent
ENCODING 311
SWIDTH 403 0
DWIDTH 6 0
BBX 6 15 0 -5
BITMAP
80
80
80
88
50
60
40
40
70
4C
00
00
10
10
10
ENDCHAR
STARTCHAR Lacute
ENCODING 313
SWIDTH 346 0
DWIDTH 6 0
BBX 5 12 0 0
BITMAP
08
10
20
80
40
40
80
80
80
80
80
78
ENDCHAR
STARTCHAR lacute
ENCODING 314
SWIDTH 120 0
DWIDTH 2 0
BBX 2 13 0 0
BITMAP
40
80
80
00
80
80
80
80
80
80
C0
80
80
ENDCHAR
STARTCHAR Lcommaaccent
ENCODING 315
SWIDTH 346 0
DWIDTH 6 0
BBX 5 14 0 -5
BITMAP
80
40
40
80
80
80
80
80
78
00
00
20
20
20
ENDCHAR
STARTCHAR lcommaaccent
ENCODING 316
SWIDTH 120 0
DWIDTH 2 0
BBX 2 14 0 -5
BITMAP
80
80
80
80
80
80
C0
80
80
00
00
C0
40
80
ENDCHAR
STARTCHAR Lcaron
ENCODING 317
SWIDTH 346 0
DWIDTH 6 0
BBX 5 12 0 0
BITMAP
20
10
10
90
40
40
80
80
80
80
80
78
ENDCHAR
STARTCHAR lcaron
ENCODING 318
SWIDTH 222 0
DWIDTH 4 0
BBX 3 12 0 0
BITMAP
20
20
20
A0
80
80
80
80
80
C0
80
80
ENDCHAR
STARTCHAR Ldot
ENCODING 319
SWIDTH 346 0
DWIDTH 6 0
BBX 5 9 0 0
BITMAP
80
40
40
80
A0
B0
80
80
78
ENDCHAR
STARTCHAR ldot
ENCODING 320
SWIDTH 333 0
DWIDTH 5 0
BBX 5 9 0 0
BITMAP
80
80
80
80
90
98
C0
80
80
ENDCHAR
STARTCHAR Lslash
ENCODING 321
SWIDTH 346 0
DWIDTH 6 0
BBX 6 9 0 0
BITMAP
40
40
40
40
60
60
C0
40
3C
ENDCHAR
STARTCHAR lslash
ENCODING 322
SWIDTH 120 0
DWIDTH 2 0
BBX 4 9 -1 0
BITMAP
40
20
20
30
60
A0
20
20
40
ENDCHAR
STARTCHAR Nacute
ENCODING 323
SWIDTH 609 0
DWIDTH 10 0
BBX 9 11 0 0
BITMAP
0400
0800
9000
4100
4100
4080
6080
A080
9080
C880
8700
ENDCHAR
STARTCHAR nacute
ENCODING 324
SWIDTH 459 0
DWIDTH 7 0
BBX 7 11 0 0
BITMAP
10
30
20
00
38
C4
C6
42
42
42
42
ENDCHAR
STARTCHAR Ncommaaccent
ENCODING 325
SWIDTH 609 0
DWIDTH 10 0
BBX 9 14 0 -5
BITMAP
8000
4100
4100
4080
6080
A080
9080
C880
8700
0000
0000
0800
0800
0800
ENDCHAR
STARTCHAR ncommaaccent
ENCODING 326
SWIDTH 459 0
DWIDTH 7 0
BBX 7 12 0 -5
BITMAP
38
C4
C6
42
42
42
42
00
00
10
10
10
ENDCHAR
STARTCHAR Ncaron
ENCODING 327
SWIDTH 609 0
DWIDTH 10 0
BBX 9 12 0 0
BITMAP
1200
0C00
0000
8000
4100
4100
4080
6080
A080
9080
C880
8700
ENDCHAR
STARTCHAR ncaron
ENCODING 328
SWIDTH 459 0
DWIDTH 7 0
BBX 7 10 0 0
BITMAP
24
18
00
38
C4
C6
42
42
42
42
ENDCHAR
STARTCHAR napostrophe
ENCODING 329
SWIDTH 459 0
DWIDTH 7 0
BBX 7 10 0 0
BITMAP
60
20
40
38
C4
C6
42
42
42
42
ENDCHAR
STARTCHAR Omacron
ENCODING 332
SWIDTH 609 0
DWIDTH 10 0
BBX 9 11 0 0
BITMAP
1E00
1000
0000
3000
4E00
8100
8080
8080
4080
6180
1E00
ENDCHAR
STARTCHAR omacron
ENCODING 333
SWIDTH 487 0
DWIDTH 8 0
BBX 7 9 0 0
BITMAP
1C
20
3C
46
82
82
82
46
3C
ENDCHAR
STARTCHAR Obreve
ENCODING 334
SWIDTH 609 0
DWIDTH 10 0
BBX 9 10 0 0
BITMAP
1400
0800
3000
4E00
8100
8080
8080
4080
6180
1E00
ENDCHAR
STARTCHAR obreve
ENCODING 335
SWIDTH 487 0
DWIDTH 8 0
BBX 7 9 0 0
BITMAP
48
30
3C
46
82
82
82
46
3C
ENDCHAR
STARTCHAR Ohungarumlaut
ENCODING 336
SWIDTH 609 0
DWIDTH 10 0
BBX 9 11 0 0
BITMAP
1C00
1400
0000
3000
4E00
8100
8080
8080
4080
6180
1E00
ENDCHAR
STARTCHAR ohungarumlaut
ENCODING 337
SWIDTH 487 0
DWIDTH 8 0
BBX 7 9 0 0
BITMAP
18
2C
3C
46
82
82
82
46
3C
ENDCHAR
STARTCHAR OE
ENCODING 338
SWIDTH 848 0
DWIDTH 14 0
BBX 13 8 0 0
BITMAP
3B80
4E78
8600
8278
8380
4200
6200
1FF8
ENDCHAR
STARTCHAR oe
ENCODING 339
SWIDTH 875 0
DWIDTH 14 0
BBX 14 9 0 -1
BITMAP
0060
1990
6610
8210
83E0
8200
4700
3CCC
0030
ENDCHAR
STARTCHAR Racute
ENCODING 340
SWIDTH 579 0
DWIDTH 9 0
BBX 9 14 0 -1
BITMAP
0400
0C00
1000
7C00
8300
2100
2100
3E00
2000
3000
2800
1400
1300
0080
ENDCHAR
STARTCHAR racute
ENCODING 341
SWIDTH 346 0
DWIDTH 6 0
BBX 5 11 0 0
BITMAP
10
30
40
00
F8
80
80
80
40
40
40
ENDCHAR
STARTCHAR Rcommaaccent
ENCODING 342
SWIDTH 579 0
DWIDTH 9 0
BBX 9 15 0 -5
BITMAP
7C00
8300
2100
2100
3E00
2000
3000
2800
1400
1300
0080
0000
0800
0800
0800
ENDCHAR
STARTCHAR rcommaaccent
ENCODING 343
SWIDTH 346 0
DWIDTH 6 0
BBX 5 12 0 -5
BITMAP
F8
80
80
80
40
40
40
00
00
20
20
20
ENDCHAR
STARTCHAR Rcaron
ENCODING 344
SWIDTH 579 0
DWIDTH 9 0
BBX 9 14 0 -1
BITMAP
3200
0C00
0000
7C00
8300
2100
2100
3E00
2000
3000
2800
1400
1300
0080
ENDCHAR
STARTCHAR rcaron
ENCODING 345
SWIDTH 346 0
DWIDTH 6 0
BBX 5 10 0 0
BITMAP
48
30
00
F8
80
80
80
40
40
40
ENDCHAR
STARTCHAR Sacute
ENCODING 346
SWIDTH 627 0
DWIDTH 10 0
BBX 10 13 0 0
BITMAP
0400
0800
1000
0C00
3300
2080
3000
0800
0600
8180
8040
4040
3F80
ENDCHAR
STARTCHAR sacute
ENCODING 347
SWIDTH 514 0
DWIDTH 8 0
BBX 8 11 0 0
BITMAP
04
08
10
00
78
84
40
3E
01
C1
3E
ENDCHAR
STARTCHAR Scircumflex
ENCODING 348
SWIDTH 627 0
DWIDTH 10 0
BBX 10 14 0 0
BITMAP
0400
0C00
1A00
1200
0C00
3300
2080
3000
0800
0600
8180
8040
4040
3F80
ENDCHAR
STARTCHAR scircumflex
ENCODING 349
SWIDTH 514 0
DWIDTH 8 0
BBX 8 12 0 0
BITMAP
08
18
14
24
00
78
84
40
3E
01
C1
3E
ENDCHAR
STARTCHAR Scedilla
ENCODING 350
SWIDTH 627 0
DWIDTH 10 0
BBX 10 15 0 -5
BITMAP
0C00
3300
2080
3000
0800
0600
8180
8040
4040
3F80
1000
1800
0600
1200
0C00
ENDCHAR
STARTCHAR scedilla
ENCODING 351
SWIDTH 514 0
DWIDTH 8 0
BBX 8 12 0 -5
BITMAP
78
84
40
3E
01
C1
3E
20
10
0C
24
1C
ENDCHAR
STARTCHAR Scaron
ENCODING 352
SWIDTH 627 0
DWIDTH 10 0
BBX 10 12 0 0
BITMAP
1200
0C00
0C00
3300
2080
3000
0800
0600
8180
8040
4040
3F80
ENDCHAR
STARTCHAR scaron
ENCODING 353
SWIDTH 514 0
DWIDTH 8 0
BBX 8 10 0 0
BITMAP
24
18
00
78
84
40
3E
01
C1
3E
ENDCHAR
STARTCHAR Tcommaaccent
ENCODING 354
SWIDTH 581 0
DWIDTH 9 0
BBX 11 15 0 -5
BITMAP
FFC0
0420
0400
0400
0400
0400
0400
0200
0200
0200
0000
0000
0200
0200
0200
ENDCHAR
STARTCHAR tcommaaccent
ENCODING 355
SWIDTH 328 0
DWIDTH 5 0
BBX 5 15 0 -5
BITMAP
20
20
20
20
F8
20
20
20
20
20
00
00
20
20
20
ENDCHAR
STARTCHAR Tcaron
ENCODING 356
SWIDTH 581 0
DWIDTH 9 0
BBX 11 12 0 0
BITMAP
1200
2C00
FFC0
0420
0400
0400
0400
0400
0400
0200
0200
0200
ENDCHAR
STARTCHAR tcaron
ENCODING 357
SWIDTH 431 0
DWIDTH 7 0
BBX 7 12 0 0
BITMAP
04
04
22
22
20
20
F8
20
20
20
20
20
ENDCHAR
STARTCHAR Utilde
ENCODING 360
SWIDTH 571 0
DWIDTH 9 0
BBX 9 11 0 0
BITMAP
1200
2E00
6200
8200
8300
8100
8100
4100
4100
6680
3880
ENDCHAR
STARTCHAR utilde
ENCODING 361
SWIDTH 501 0
DWIDTH 8 0
BBX 8 11 0 0
BITMAP
22
5C
40
80
82
82
82
46
46
39
02
ENDCHAR
STARTCHAR Umacron
ENCODING 362
SWIDTH 571 0
DWIDTH 9 0
BBX 9 11 0 0
BITMAP
1C00
2200
4200
8200
8300
8100
8100
4100
4100
6680
3880
ENDCHAR
STARTCHAR umacron
ENCODING 363
SWIDTH 501 0
DWIDTH 8 0
BBX 8 10 0 0
BITMAP
38
44
80
82
82
82
46
46
39
02
ENDCHAR
STARTCHAR Ubreve
ENCODING 364
SWIDTH 571 0
DWIDTH 9 0
BBX 9 10 0 0
BITMAP
1400
4A00
8200
8300
8100
8100
4100
4100
6680
3880
ENDCHAR
STARTCHAR ubreve
ENCODING 365
SWIDTH 501 0
DWIDTH 8 0
BBX 8 10 0 0
BITMAP
28
10
80
82
82
82
46
46
39
02
ENDCHAR
STARTCHAR Uring
ENCODING 366
SWIDTH 571 0
DWIDTH 9 0
BBX 9 11 0 0
BITMAP
1C00
2400
5A00
8200
8300
8100
8100
4100
4100
6680
3880
ENDCHAR
STARTCHAR uring
ENCODING 367
SWIDTH 501 0
DWIDTH 8 0
BBX 8 9 0 0
BITMAP
38
A8
92
82
82
46
46
39
02
ENDCHAR
STARTCHAR Uhungarumlaut
ENCODING 368
SWIDTH 571 0
DWIDTH 9 0
BBX 9 11 0 0
BITMAP
1400
2800
4200
8200
8300
8100
8100
4100
4100
6680
3880
ENDCHAR
STARTCHAR uhungarumlaut
ENCODING 369
SWIDTH 501 0
DWIDTH 8 0
BBX 8 11 0 0
BITMAP
14
28
00
80
82
82
82
46
46
39
02
ENDCHAR
STARTCHAR Uogonek
ENCODING 370
SWIDTH 571 0
DWIDTH 9 0
BBX 9 11 1 -3
BITMAP
8400
8200
8200
8200
8200
8200
8300
4D00
3200
0400
0380
ENDCHAR
STARTCHAR uogonek
ENCODING 371
SWIDTH 501 0
DWIDTH 8 0
BBX 8 10 0 -2
BITMAP
80
84
82
82
42
46
3A
03
04
07
ENDCHAR
STARTCHAR Wcircumflex
ENCODING 372
SWIDTH 703 0
DWIDTH 11 0
BBX 11 14 0 0
BITMAP
0400
0600
0B00
1100
0000
0000
8040
8040
8040
8820
8420
4C20
5A40
3180
ENDCHAR
STARTCHAR wcircumflex
ENCODING 373
SWIDTH 656 0
DWIDTH 11 0
BBX 10 12 0 0
BITMAP
0400
0600
0A00
1200
0000
8000
8080
8440
8440
8440
4E40
3380
ENDCHAR
STARTCHAR Ycircumflex
ENCODING 374
SWIDTH 403 0
DWIDTH 6 0
BBX 6 14 0 0
BITMAP
10
10
28
48
84
44
64
3C
08
08
10
10
10
10
ENDCHAR
STARTCHAR ycircumflex
ENCODING 375
SWIDTH 487 0
DWIDTH 8 0
BBX 8 20 0 -8
BITMAP
10
18
3C
44
00
82
82
82
82
42
26
19
01
01
02
02
82
42
26
1C
ENDCHAR
STARTCHAR Ydieresis
ENCODING 376
SWIDTH 403 0
DWIDTH 6 0
BBX 6 12 0 0
BITMAP
68
00
84
44
64
3C
08
08
10
10
10
10
ENDCHAR
STARTCHAR Zacute
ENCODING 377
SWIDTH 571 0
DWIDTH 9 0
BBX 9 14 0 0
BITMAP
0400
0800
1000
0000
7800
8400
0400
0400
0400
3F00
0800
1000
1180
1F00
ENDCHAR
STARTCHAR zacute
ENCODING 378
SWIDTH 459 0
DWIDTH 7 0
BBX 7 12 0 0
BITMAP
08
10
20
00
F8
08
08
0C
70
20
62
3C
ENDCHAR
STARTCHAR Zdotaccent
ENCODING 379
SWIDTH 571 0
DWIDTH 9 0
BBX 9 13 0 0
BITMAP
1000
1000
0000
7800
8400
0400
0400
0400
3F00
0800
1000
1180
1F00
ENDCHAR
STARTCHAR zdotaccent
ENCODING 380
SWIDTH 459 0
DWIDTH 7 0
BBX 7 11 0 0
BITMAP
10
10
00
F8
08
08
0C
70
20
62
3C
ENDCHAR
STARTCHAR Zcaron
ENCODING 381
SWIDTH 571 0
DWIDTH 9 0
BBX 9 13 0 0
BITMAP
2400
1800
0000
7800
8400
0400
0400
0400
3F00
0800
1000
1180
1F00
ENDCHAR
STARTCHAR zcaron
ENCODING 382
SWIDTH 459 0
DWIDTH 7 0
BBX 7 11 0 0
BITMAP
48
30
00
F8
08
08
0C
70
20
62
3C
ENDCHAR
STARTCHAR florin
ENCODING 402
SWIDTH 376 0
DWIDTH 6 0
BBX 9 15 -2 -4
BITMAP
0700
0880
0800
0800
1800
0800
3F00
0800
0800
0800
0800
0800
8800
4800
3800
ENDCHAR
STARTCHAR AEacute
ENCODING 508
SWIDTH 960 0
DWIDTH 15 0
BBX 15 14 0 0
BITMAP
0040
0080
3D00
4200
42FC
4182
4180
8180
81FC
7F80
4080
4080
4080
41FE
ENDCHAR
STARTCHAR aeacute
ENCODING 509
SWIDTH 881 0
DWIDTH 14 0
BBX 14 12 0 0
BITMAP
0080
0100
0200
0000
38E0
0510
0310
3E30
42C0
8100
4100
3EFC
ENDCHAR
STARTCHAR Oslashacute
ENCODING 510
SWIDTH 609 0
DWIDTH 10 0
BBX 9 12 0 -1
BITMAP
0400
1800
0000
3200
4E00
8500
8480
8880
4880
6980
1E00
1000
ENDCHAR
STARTCHAR oslashacute
ENCODING 511
SWIDTH 487 0
DWIDTH 8 0
BBX 7 10 0 0
BITMAP
08
18
10
1A
66
86
8A
9A
56
3C
ENDCHAR
STARTCHAR Scommaaccent
ENCODING 536
SWIDTH 627 0
DWIDTH 10 0
BBX 10 15 0 -5
BITMAP
0C00
3300
2080
3000
0800
0600
8180
8040
4040
3F80
0000
0000
0800
0800
0800
ENDCHAR
STARTCHAR scommaaccent
ENCODING 537
SWIDTH 514 0
DWIDTH 8 0
BBX 8 12 0 -5
BITMAP
78
84
40
3E
01
C1
3E
00
00
18
08
10
ENDCHAR
STARTCHAR circumflex
ENCODING 710
SWIDTH 375 0
DWIDTH 6 0
BBX 4 4 1 8
BITMAP
40
60
D0
90
ENDCHAR
STARTCHAR caron
ENCODING 711
SWIDTH 375 0
DWIDTH 6 0
BBX 4 2 1 8
BITMAP
90
60
ENDCHAR
STARTCHAR breve
ENCODING 728
SWIDTH 224 0
DWIDTH 4 0
BBX 3 2 0 6
BITMAP
A0
40
ENDCHAR
STARTCHAR dotaccent
ENCODING 729
SWIDTH 152 0
DWIDTH 2 0
BBX 1 2 1 7
BITMAP
80
80
ENDCHAR
STARTCHAR ring
ENCODING 730
SWIDTH 333 0
DWIDTH 5 0
BBX 3 3 1 6
BITMAP
60
A0
40
ENDCHAR
STARTCHAR ogonek
ENCODING 731
SWIDTH 254 0
DWIDTH 4 0
BBX 4 3 0 -2
BITMAP
40
60
F0
ENDCHAR
STARTCHAR tilde
ENCODING 732
SWIDTH 402 0
DWIDTH 6 0
BBX 6 3 0 6
BITMAP
44
B8
80
ENDCHAR
STARTCHAR hungarumlaut
ENCODING 733
SWIDTH 264 0
DWIDTH 4 0
BBX 4 2 0 7
BITMAP
50
A0
ENDCHAR
STARTCHAR Wgrave
ENCODING 7808
SWIDTH 703 0
DWIDTH 11 0
BBX 11 11 0 0
BITMAP
0400
0200
0000
8040
8040
8040
8820
8420
4C20
5A40
3180
ENDCHAR
STARTCHAR wgrave
ENCODING 7809
SWIDTH 656 0
DWIDTH 11 0
BBX 10 9 0 0
BITMAP
0C00
0600
8000
8080
8440
8440
8440
4E40
3380
ENDCHAR
STARTCHAR Wacute
ENCODING 7810
SWIDTH 703 0
DWIDTH 11 0
BBX 11 11 0 0
BITMAP
0200
0400
0800
8040
8040
8040
8820
8420
4C20
5A40
3180
ENDCHAR
STARTCHAR wacute
ENCODING 7811
SWIDTH 656 0
DWIDTH 11 0
BBX 10 11 0 0
BITMAP
0200
0C00
0800
0000
8000
8080
8440
8440
8440
4E40
3380
ENDCHAR
STARTCHAR Wdieresis
ENCODING 7812
SWIDTH 703 0
DWIDTH 11 0
BBX 11 10 0 0
BITMAP
0B00
0000
8040
8040
8040
8820
8420
4C20
5A40
3180
ENDCHAR
STARTCHAR wdieresis
ENCODING 7813
SWIDTH 656 0
DWIDTH 11 0
BBX 10 8 0 0
BITMAP
1A00
8000
8080
8440
8440
8440
4E40
3380
ENDCHAR
STARTCHAR Ygrave
ENCODING 7922
SWIDTH 403 0
DWIDTH 6 0
BBX 6 13 0 0
BITMAP
20
10
00
84
44
64
3C
08
08
10
10
10
10
ENDCHAR
STARTCHAR ygrave
ENCODING 7923
SWIDTH 487 0
DWIDTH 8 0
BBX 8 17 0 -8
BITMAP
10
08
82
82
82
82
42
26
19
01
01
02
02
82
42
26
1C
ENDCHAR
STARTCHAR endash
ENCODING 8211
SWIDTH 287 0
DWIDTH 5 0
BBX 4 1 0 4
BITMAP
F0
ENDCHAR
STARTCHAR emdash
ENCODING 8212
SWIDTH 512 0
DWIDTH 8 0
BBX 8 1 0 4
BITMAP
FF
ENDCHAR
STARTCHAR quoteleft
ENCODING 8216
SWIDTH 102 0
DWIDTH 2 0
BBX 1 4 0 8
BITMAP
80
80
80
80
ENDCHAR
STARTCHAR quoteright
ENCODING 8217
SWIDTH 102 0
DWIDTH 2 0
BBX 1 4 0 8
BITMAP
80
80
80
80
ENDCHAR
STARTCHAR quotesinglbase
ENCODING 8218
SWIDTH 102 0
DWIDTH 2 0
BBX 1 4 0 -1
BITMAP
80
80
80
80
ENDCHAR
STARTCHAR quotedblleft
ENCODING 8220
SWIDTH 234 0
DWIDTH 4 0
BBX 3 5 0 8
BITMAP
20
A0
A0
A0
60
ENDCHAR
STARTCHAR quotedblright
ENCODING 8221
SWIDTH 234 0
DWIDTH 4 0
BBX 3 5 0 8
BITMAP
20
A0
A0
A0
60
ENDCHAR
STARTCHAR quotedblbase
ENCODING 8222
SWIDTH 341 0
DWIDTH 5 0
BBX 3 5 1 -2
BITMAP
A0
A0
A0
60
60
ENDCHAR
STARTCHAR dagger
ENCODING 8224
SWIDTH 375 0
DWIDTH 6 0
BBX 6 10 0 0
BITMAP
20
20
20
78
94
10
10
10
10
10
ENDCHAR
STARTCHAR daggerdbl
ENCODING 8225
SWIDTH 375 0
DWIDTH 6 0
BBX 8 12 -1 0
BITMAP
10
10
10
10
7E
89
0C
FB
08
08
08
08
ENDCHAR
STARTCHAR bullet
ENCODING 8226
SWIDTH 341 0
DWIDTH 5 0
BBX 2 3 2 3
BITMAP
40
C0
C0
ENDCHAR
STARTCHAR ellipsis
ENCODING 8230
SWIDTH 612 0
DWIDTH 10 0
BBX 8 3 1 0
BITMAP
99
DB
99
ENDCHAR
STARTCHAR guilsinglleft
ENCODING 8249
SWIDTH 487 0
DWIDTH 8 0
BBX 7 7 0 0
BITMAP
02
04
08
30
40
F0
0E
ENDCHAR
STARTCHAR guilsinglright
ENCODING 8250
SWIDTH 403 0
DWIDTH 6 0
BBX 6 7 0 0
BITMAP
C0
38
04
0C
10
60
C0
ENDCHAR
STARTCHAR fraction
ENCODING 8260
SWIDTH 309 0
DWIDTH 5 0
BBX 5 12 0 0
BITMAP
08
08
10
10
10
20
20
20
40
40
C0
80
ENDCHAR
STARTCHAR Euro
ENCODING 8364
SWIDTH 741 0
DWIDTH 12 0
BBX 11 11 0 0
BITMAP
01C0
0200
0600
FF80
1000
1100
FE80
1000
1000
1060
0FC0
ENDCHAR
STARTCHAR trademark
ENCODING 8482
SWIDTH 1116 0
DWIDTH 18 0
BBX 17 10 0 0
BITMAP
FE2080
05E080
043180
042F80
042080
042080
042080
042080
022080
022080
ENDCHAR
STARTCHAR minus
ENCODING 8722
SWIDTH 287 0
DWIDTH 5 0
BBX 4 1 0 4
BITMAP
F0
ENDCHAR
STARTCHAR commaaccent
ENCODING 63171
SWIDTH 375 0
DWIDTH 6 0
BBX 1 3 2 -5
BITMAP
80
80
80
ENDCHAR
STARTCHAR fi
ENCODING 64257
SWIDTH 551 0
DWIDTH 9 0
BBX 7 11 0 0
BITMAP
1C
22
44
40
44
24
FC
24
16
12
0A
ENDCHAR
STARTCHAR fl
ENCODING 64258
SWIDTH 723 0
DWIDTH 12 0
BBX 7 11 0 0
BITMAP
1C
22
44
44
44
24
FC
24
14
14
0C
ENDCHAR
STARTCHAR .notdef
ENCODING -1
SWIDTH 375 0
DWIDTH 6 0
BBX 1 1 0 0
BITMAP
00
ENDCHAR
STARTCHAR .null
ENCODING -1
SWIDTH 0 0
DWIDTH 0 0
BBX 1 1 0 0
BITMAP
00
ENDCHAR
STARTCHAR nonmarkingreturn
ENCODING -1
SWIDTH 375 0
DWIDTH 6 0
BBX 1 1 0 0
BITMAP
00
ENDCHAR
ENDFONT
